<svg xmlns="http://www.w3.org/2000/svg" version="1.1" xmlns:xlink="http://www.w3.org/1999/xlink" xmlns:svgjs="http://svgjs.com/svgjs" width="512" height="512" x="0" y="0" viewBox="0 0 1550 1550" style="enable-background:new 0 0 512 512" xml:space="preserve" class=""><g><path d="M957.3 1087.1H352.4c-11.6 0-21-9.4-21-21s9.4-21 21-21h604.9c11.6 0 21 9.4 21 21s-9.5 21-21 21zM138.4 722c-11.6 0-21-9.4-21-21V309.4c0-41.1 33.5-74.6 74.6-74.6h1060.3c41.1 0 74.6 33.5 74.6 74.6v239c0 11.6-9.4 21-21 21s-21-9.4-21-21v-239c0-18-14.6-32.6-32.6-32.6H192c-18 0-32.6 14.6-32.6 32.6V701c0 11.6-9.4 21-21 21zM957.3 908.2H352.4c-11.6 0-21-9.4-21-21s9.4-21 21-21h604.9c11.6 0 21 9.4 21 21s-9.5 21-21 21z" fill="#368F95" data-original="#000000" opacity="1" class=""></path><circle cx="722.1" cy="976.6" r="25.9" fill="#368F95" data-original="#000000" opacity="1" class=""></circle><path d="M636.1 1201.7c-11.6 0-21-9.4-21-21v-114.6c0-11.6 9.4-21 21-21s21 9.4 21 21v114.6c0 11.6-9.4 21-21 21zM808.2 1201.7c-11.6 0-21-9.4-21-21v-114.6c0-11.6 9.4-21 21-21s21 9.4 21 21v114.6c0 11.6-9.4 21-21 21z" fill="#368F95" data-original="#000000" opacity="1" class=""></path><path d="M977.3 1315.1H419.9c-11.6 0-21-9.4-21-21v-13.4c0-63.3 51.5-114.8 114.8-114.8h417c11.1 0 22.1 1.6 32.6 4.7 11.1 3.3 17.5 15 14.2 26.1s-15 17.5-26.1 14.2c-6.7-2-13.6-3-20.7-3h-417c-37.6 0-68.6 28.6-72.4 65.2h536c11.6 0 21 9.4 21 21s-9.4 21-21 21zM336.5 1315.1H46.9c-20.4 0-36.9-16.6-36.9-36.9V716.9c0-20.4 16.6-36.9 36.9-36.9h289.5c20.4 0 36.9 16.6 36.9 36.9v561.2c.1 20.5-16.5 37-36.8 37zm-284.5-42h279.4V722H52z" fill="#368F95" data-original="#000000" opacity="1" class=""></path><path d="M352.4 808.5H31c-11.6 0-21-9.4-21-21s9.4-21 21-21h321.4c11.6 0 21 9.4 21 21s-9.4 21-21 21zM352.4 1228.6H31c-11.6 0-21-9.4-21-21s9.4-21 21-21h321.4c11.6 0 21 9.4 21 21s-9.4 21-21 21zM1499 1315.1H977.3c-22.6 0-41-18.4-41-41V568.5c0-22.6 18.4-41 41-41H1499c22.6 0 41 18.4 41 41v705.6c0 22.6-18.4 41-41 41zm-520.7-42H1498V569.4H978.2v703.7z" fill="#368F95" data-original="#000000" opacity="1" class=""></path><path d="M1449 1204h-421.8c-11.6 0-21-9.4-21-21V618.4c0-11.6 9.4-21 21-21H1449c11.6 0 21 9.4 21 21V1183c0 11.6-9.4 21-21 21zm-400.7-42H1428V639.4h-379.8V1162z" fill="#368F95" data-original="#000000" opacity="1" class=""></path><circle cx="1238.1" cy="1238.6" r="19.9" fill="#368F95" data-original="#000000" opacity="1" class=""></circle></g></svg>