<svg width="132" height="67" viewBox="0 0 132 67" fill="none" xmlns="http://www.w3.org/2000/svg">
<g clip-path="url(#clip0_234_84)">
<path d="M0 24.45V21.38C4.54 -8.69997 48.84 -4.06997 46.22 25.01C43.85 51.32 3.4 52.02 0 24.45ZM25.3152 34.5694C28.2456 34.0369 30.8331 32.2999 32.5085 29.7405C34.1839 27.1811 34.81 24.0091 34.249 20.9221C33.688 17.8352 31.9859 15.0862 29.5172 13.2799C27.0484 11.4737 24.0152 10.7581 21.0848 11.2906C18.1544 11.8232 15.5669 13.5602 13.8915 16.1196C12.2161 18.6789 11.59 21.851 12.151 24.9379C12.712 28.0249 14.4141 30.7739 16.8828 32.5801C19.3516 34.3864 22.3848 35.102 25.3152 34.5694Z" fill="white"/>
<path d="M75.75 19.2694C75.78 12.7594 70.47 11.1094 64.87 12.4694C64.796 12.4877 64.7187 12.4888 64.6442 12.4727C64.5697 12.4566 64.4998 12.4236 64.44 12.3763C64.3801 12.329 64.3319 12.2687 64.299 12.1999C64.2661 12.1311 64.2493 12.0557 64.25 11.9794V4.75941C64.25 4.39941 64.3834 4.09941 64.65 3.85941C71.42 -2.22059 82.78 0.909412 86.25 8.30941C87.2234 10.3761 87.7434 13.4161 87.81 17.4294C87.9567 26.1161 88.0067 34.7994 87.96 43.4794C87.96 43.8261 87.7867 43.9994 87.44 43.9994H76.3C76.1638 43.9994 76.0331 43.946 75.9358 43.8507C75.8386 43.7553 75.7826 43.6256 75.78 43.4894C75.72 35.3894 75.71 27.3161 75.75 19.2694Z" fill="white"/>
<path d="M132 21.1306V26.9106L102.7 27.0006C102.333 27.0006 102.183 27.184 102.25 27.5506C104.06 37.3606 116.52 36.6106 122.41 31.3606C122.683 31.114 122.963 31.1106 123.25 31.3506L129.58 36.7806C129.8 36.974 129.81 37.174 129.61 37.3806C114.84 52.9606 88.4398 43.5306 90.0798 21.0006C91.9798 -5.20936 129.33 -6.64937 132 21.1306ZM102.25 19.5006H119.89C119.924 19.5006 119.957 19.4869 119.982 19.4626C120.006 19.4382 120.02 19.4051 120.02 19.3706V19.3206C120.02 16.9973 119.077 14.7692 117.398 13.1264C115.72 11.4836 113.443 10.5606 111.07 10.5606C108.696 10.5606 106.42 11.4836 104.741 13.1264C103.063 14.7692 102.12 16.9973 102.12 19.3206V19.3706C102.12 19.4051 102.133 19.4382 102.158 19.4626C102.182 19.4869 102.215 19.5006 102.25 19.5006Z" fill="white"/>
<path d="M48.24 11H44.74C44.5923 11.0007 44.4494 10.9461 44.3387 10.8464C44.228 10.7468 44.1572 10.6092 44.14 10.46C43.65 5.94 45.07 4.5 48.48 2.02C48.72 1.84 48.9933 1.75 49.3 1.75H60.25C60.5833 1.75 60.75 1.91667 60.75 2.25V43.5C60.75 43.8333 60.5833 44 60.25 44H49.24C48.9067 44 48.7367 43.83 48.73 43.49L48.72 11.49C48.72 11.1633 48.56 11 48.24 11Z" fill="white"/>
<path d="M82.8163 50.7479L80.8963 50.7512C80.6588 50.7516 80.4666 50.9445 80.4671 51.182L80.4934 66.2819C80.4938 66.5194 80.6867 66.7116 80.9242 66.7112L82.8442 66.7078C83.0816 66.7074 83.2738 66.5146 83.2734 66.2771L83.2471 51.1771C83.2466 50.9396 83.0538 50.7474 82.8163 50.7479Z" fill="white"/>
<path d="M17.91 66.9997H15.99C15.0833 66.7331 14.3833 66.4064 13.89 66.0197C13.6277 65.8197 13.4471 65.5313 13.3817 65.208C13.3163 64.8847 13.3706 64.5487 13.5345 64.2625C13.6984 63.9763 13.9607 63.7594 14.2726 63.6522C14.5845 63.545 14.9247 63.5548 15.23 63.6797L17.34 64.5197C17.5317 64.5978 17.7451 64.605 17.9416 64.5399C18.1382 64.4748 18.3051 64.3417 18.4124 64.1646C18.5196 63.9875 18.5602 63.7779 18.5267 63.5735C18.4933 63.3692 18.3881 63.1835 18.23 63.0497C16.56 61.5997 11.05 59.7497 14.37 56.2897C16.1233 54.4631 18.2266 54.4897 20.68 56.3697C20.7327 56.4103 20.7759 56.4619 20.8069 56.521C20.8379 56.58 20.8558 56.6453 20.8596 56.7124C20.8634 56.7795 20.8529 56.8469 20.8288 56.9103C20.8047 56.9736 20.7676 57.0314 20.72 57.0797L19.54 58.2597C19.2466 58.5531 18.9466 58.5597 18.64 58.2797C18.1533 57.8331 17.5466 57.6564 16.82 57.7497C16.6516 57.7702 16.4957 57.8487 16.3789 57.9716C16.2621 58.0945 16.1917 58.2543 16.1799 58.4235C16.168 58.5926 16.2155 58.7607 16.314 58.8987C16.4126 59.0367 16.5561 59.136 16.72 59.1797C20.98 60.3697 23.88 65.5697 17.91 66.9997Z" fill="white"/>
<path d="M50.6801 66.9995H48.9701C40.0001 64.4295 45.8001 51.6295 51.9901 55.5695C52.2368 55.7228 52.5035 55.7728 52.7901 55.7195L55.6201 55.1395C55.6961 55.1231 55.7749 55.1239 55.8505 55.1419C55.9262 55.1599 55.9969 55.1946 56.0573 55.2436C56.1178 55.2925 56.1665 55.3544 56.1998 55.4246C56.2332 55.4949 56.2504 55.5717 56.2501 55.6495V66.0595C56.2501 66.4928 56.0335 66.7262 55.6001 66.7595C54.8468 66.8062 54.1201 66.6662 53.4201 66.3395C53.1601 66.2262 52.8968 66.2162 52.6301 66.3095L50.6801 66.9995ZM53.6901 60.9995C53.6901 60.1376 53.3477 59.3109 52.7382 58.7014C52.1287 58.0919 51.3021 57.7495 50.4401 57.7495C49.5782 57.7495 48.7515 58.0919 48.142 58.7014C47.5325 59.3109 47.1901 60.1376 47.1901 60.9995C47.1901 61.8615 47.5325 62.6881 48.142 63.2976C48.7515 63.9071 49.5782 64.2495 50.4401 64.2495C51.3021 64.2495 52.1287 63.9071 52.7382 63.2976C53.3477 62.6881 53.6901 61.8615 53.6901 60.9995Z" fill="white"/>
<path d="M114.16 66.9999H111.94C103.71 65.3099 106.07 53.7099 114.09 55.1299C116.917 55.6299 118.553 57.4999 119 60.7399C119.022 60.8956 119.009 61.0541 118.964 61.2047C118.919 61.3552 118.843 61.4944 118.74 61.6129C118.636 61.7313 118.509 61.8263 118.366 61.8913C118.223 61.9563 118.067 61.99 117.91 61.9899L110.24 61.9999C110.13 62.0003 110.023 62.033 109.931 62.0939C109.84 62.1549 109.769 62.2413 109.726 62.3426C109.683 62.4439 109.671 62.5555 109.692 62.6635C109.712 62.7715 109.764 62.8711 109.84 62.9499C111.633 64.7633 113.553 64.9633 115.6 63.5499C115.842 63.3828 116.134 63.3027 116.427 63.3228C116.721 63.3429 116.999 63.4619 117.216 63.6604C117.433 63.8589 117.576 64.1252 117.623 64.4157C117.669 64.7063 117.615 65.0039 117.47 65.2599C116.977 66.1199 115.874 66.6999 114.16 66.9999ZM115.51 58.5299C113.543 56.8633 111.677 57.0166 109.91 58.9899C109.847 59.0607 109.807 59.1498 109.798 59.2443C109.788 59.3388 109.809 59.4339 109.856 59.5161C109.904 59.5982 109.977 59.6632 110.064 59.7016C110.15 59.74 110.247 59.7499 110.34 59.7299C111.84 59.4299 113.364 59.4399 114.91 59.7599C115.063 59.7883 115.221 59.7659 115.359 59.696C115.498 59.6261 115.61 59.5127 115.678 59.3732C115.746 59.2336 115.767 59.0756 115.736 58.9232C115.706 58.7709 115.627 58.6328 115.51 58.5299Z" fill="white"/>
</g>
<defs>
<clipPath id="clip0_234_84">
<rect width="132" height="67" fill="white"/>
</clipPath>
</defs>
</svg>
