<svg xmlns="http://www.w3.org/2000/svg" version="1.1" xmlns:xlink="http://www.w3.org/1999/xlink" xmlns:svgjs="http://svgjs.com/svgjs" width="512" height="512" x="0" y="0" viewBox="0 0 64 64" style="enable-background:new 0 0 512 512" xml:space="preserve" class=""><g><g data-name="smartphone-money-pay in-pay out-security"><path d="M59 2H31a3.009 3.009 0 0 0-3 3v14.53a16 16 0 1 0 0 24.94V59a3.009 3.009 0 0 0 3 3h28a3.009 3.009 0 0 0 3-3V5a3.009 3.009 0 0 0-3-3Zm-4.28 2-.5 2H35.78l-.5-2ZM18 46a14 14 0 1 1 14-14 14.015 14.015 0 0 1-14 14Zm42 13a1 1 0 0 1-1 1H31a1 1 0 0 1-1-1V42.55a15.913 15.913 0 0 0 0-21.1V5a1 1 0 0 1 1-1h2.22l.81 3.24A1 1 0 0 0 35 8h20a1 1 0 0 0 .97-.76L56.78 4H59a1 1 0 0 1 1 1Z" fill="#368f95" data-original="#000000" opacity="1" class=""></path><path d="M25 5H12V3a1 1 0 0 0-1.64-.77l-6 5a1 1 0 0 0 0 1.54l6 5A1 1 0 0 0 11 14a1.023 1.023 0 0 0 .42-.09A1 1 0 0 0 12 13v-2h13a1 1 0 0 0 1-1V6a1 1 0 0 0-1-1Zm-1 4H11a1 1 0 0 0-1 1v.87L6.56 8 10 5.13V6a1 1 0 0 0 1 1h13ZM25.64 55.23l-6-5A1 1 0 0 0 18 51v2H5a1 1 0 0 0-1 1v4a1 1 0 0 0 1 1h13v2a1 1 0 0 0 .58.91A1.023 1.023 0 0 0 19 62a1 1 0 0 0 .64-.23l6-5a1 1 0 0 0 0-1.54ZM20 58.87V58a1 1 0 0 0-1-1H6v-2h13a1 1 0 0 0 1-1v-.87L23.44 56ZM18 27a2 2 0 0 1 2 2h2a4 4 0 0 0-3-3.858V23h-2v2.142A3.992 3.992 0 0 0 18 33a2 2 0 1 1-2 2h-2a4 4 0 0 0 3 3.858V41h2v-2.142A3.992 3.992 0 0 0 18 31a2 2 0 0 1 0-4ZM9.515 23.515a12.013 12.013 0 0 0 0 16.97l1.414-1.414a10.011 10.011 0 0 1 0-14.142ZM26.485 23.515l-1.414 1.414a10.011 10.011 0 0 1 0 14.142l1.414 1.414a12.013 12.013 0 0 0 0-16.97ZM52.394 26.081l-7-3a1.007 1.007 0 0 0-.788 0l-7 3A1 1 0 0 0 37 27v3.515a6.958 6.958 0 0 0 2.05 4.95l5.243 5.242a1 1 0 0 0 1.414 0l5.243-5.242a6.958 6.958 0 0 0 2.05-4.95V27a1 1 0 0 0-.606-.919ZM51 30.515a4.973 4.973 0 0 1-1.464 3.536L45 38.586l-4.535-4.535A4.97 4.97 0 0 1 39 30.515v-2.856l6-2.571 6 2.571Z" fill="#368f95" data-original="#000000" opacity="1" class=""></path><path d="m43.707 30.293-1.414 1.414 2 2a1 1 0 0 0 1.414 0l4-4-1.414-1.414L45 31.586Z" fill="#368f95" data-original="#000000" opacity="1" class=""></path></g></g></svg>