<svg xmlns="http://www.w3.org/2000/svg" version="1.1" xmlns:xlink="http://www.w3.org/1999/xlink" xmlns:svgjs="http://svgjs.com/svgjs" width="512" height="512" x="0" y="0" viewBox="0 0 50 50" style="enable-background:new 0 0 512 512" xml:space="preserve"><g><path d="m18.2 36.6 6.8-3.8 6.8 3.8c.3.2.7.2 1.1-.1.3-.2.5-.6.4-1l-1.3-8 5.6-5.7c.3-.3.4-.7.2-1-.1-.4-.4-.6-.8-.7L29.3 19l-3.4-7.3c-.2-.4-.5-.6-.9-.6s-.7.2-.9.6L20.7 19 13 20.1c-.4.1-.7.3-.8.7s0 .7.2 1l5.6 5.7-1.3 8c-.1.4.1.8.4 1 .3.3.7.3 1.1.1zm-3-14.8 6.3-1c.3 0 .6-.3.8-.6l2.8-5.9 2.8 5.9c.1.3.4.5.8.6l6.3 1-4.6 4.7c-.2.2-.3.5-.3.9l1.1 6.5-5.5-3c-.2-.1-.3-.1-.5-.1s-.3 0-.5.1l-5.5 3 1.1-6.5c.1-.3 0-.6-.3-.9zM48.9 38.8c-.1-.4-.4-.6-.8-.7l-4.4-.7-2-4.2c-.2-.4-.5-.6-.9-.6s-.7.2-.9.6l-2 4.2-4.4.7c-.4.1-.7.3-.8.7s0 .7.2 1l3.2 3.3-.8 4.7c-.1.4.1.8.4 1s.7.2 1.1.1l4-2.2 4 2.2c.3.2.7.2 1.1-.1.3-.2.5-.6.4-1l-.8-4.7 3.2-3.3c.3-.2.4-.6.2-1zm-5.2 3.3c-.2.2-.3.5-.3.9l.5 3.2-2.6-1.5c-.2-.1-.3-.1-.5-.1s-.3 0-.5.1l-2.6 1.5.5-3.2c.1-.3 0-.6-.3-.9l-2.2-2.3 3-.5c.3 0 .6-.3.8-.6l1.3-2.8 1.3 2.8c.1.3.4.5.8.6l3 .5zM17.3 38.8c-.1-.4-.4-.6-.8-.7l-4.4-.7-2-4.2c-.2-.4-.5-.6-.9-.6s-.7.2-.9.6l-2 4.2-4.4.7c-.4.1-.7.3-.8.7s0 .7.2 1l3.2 3.3-.8 4.7c-.1.4.1.8.4 1s.7.2 1.1.1l4-2.2 4 2.2c.3.2.7.2 1.1-.1.3-.2.5-.6.4-1l-.8-4.7 3.2-3.3c.3-.2.4-.6.2-1zm-5.2 3.3c-.2.2-.3.5-.3.9l.5 3.2-2.6-1.5c-.3-.2-.7-.2-1 0l-2.6 1.5.5-3.2c.1-.3 0-.6-.3-.9l-2.2-2.3 3-.5c.3 0 .6-.3.8-.6L9.2 36l1.3 2.8c.1.3.4.5.8.6l3 .5zM25 8.6c.6 0 1-.4 1-1V2c0-.6-.4-1-1-1s-1 .4-1 1v5.6c0 .6.4 1 1 1zM33.8 9.3l3.6-4c.4-.4.3-1-.1-1.4s-1-.3-1.4.1l-3.6 4c-.4.4-.3 1 .1 1.4.4.3 1 .3 1.4-.1zM16.8 9.3c.4.4 1 .4 1.4 0s.4-1 0-1.4l-4.1-4c-.4-.4-1-.4-1.4 0s-.4 1 0 1.4z" fill="#CB1652" data-original="#000000" opacity="1"></path></g></svg>